<svg xmlns="http://www.w3.org/2000/svg" width="39.323" height="29.645" viewBox="0 0 39.323 29.645"><g transform="translate(-301.002 52.536)"><g transform="translate(301.002 -52.536)"><path d="M22.451,8.577,21.1,10.948,16.492,2.835,2.336,27.737h9.584a2.353,2.353,0,0,0,2.335,2.372H2.336A2.328,2.328,0,0,1,.315,28.923a2.4,2.4,0,0,1,0-2.371L14.47,1.65a2.317,2.317,0,0,1,4.044,0l3.937,6.927Z" transform="translate(-0.002 -0.464)" fill="#00c58e"/><path d="M76.717,56.533l-8.87-15.6L66.5,38.558,65.15,40.93l-8.869,15.6a2.4,2.4,0,0,0,0,2.371A2.328,2.328,0,0,0,58.3,60.091h16.39a2.329,2.329,0,0,0,2.022-1.186,2.4,2.4,0,0,0,0-2.372ZM58.3,57.719,66.5,43.3l8.194,14.417Z" transform="translate(-44.049 -30.445)" fill="#2f495e"/><path d="M121.974,47.062a2.328,2.328,0,0,1-2.022,1.186h-6.345a2.353,2.353,0,0,0,2.335-2.372h4.005L108.583,25.882l-1.821,3.2-1.348-2.372,1.148-2.019a2.317,2.317,0,0,1,4.044,0L121.974,44.69a2.4,2.4,0,0,1,0,2.372Z" transform="translate(-82.964 -18.602)" fill="#108775"/></g></g></svg>